# xmcd
#
# Track frame offsets:
#	150
#	29990
#	51422
#	63600
#	80202
#	100405
#	111995
#	131510
#	151320
#	160750
#	174450
#	192422
#	207007
#	221835
#	238112
#
# Disc length: 3500 seconds
#
# Revision: 1
# Processed by: cddbd v1.5.1PL0 Copyright (c) Steve Scherf et al.
# Submitted via: CDex 1.50Beta5
#
DISCID=e60daa0f
DTITLE=あのねのね - あのねのね
DYEAR=2001
DGENRE=
TTITLE0=LEGEND OF ANONENONE
TTITLE1=虹を追いかけた
TTITLE2=フランス語講座
TTITLE3=この場所で光を
TTITLE4=愛メール
TTITLE5=△□×○▽◎
TTITLE6=神様
TTITLE7=||
TTITLE8=ハワイアン
TTITLE9=Love is game
TTITLE10=ブラックバス
TTITLE11=A-HO
TTITLE12=復活
TTITLE13=続・赤とんぼの唄
TTITLE14=聴かなくてもよいトラック
EXTD=
EXTT0=
EXTT1=
EXTT2=
EXTT3=
EXTT4=
EXTT5=
EXTT6=
EXTT7=
EXTT8=
EXTT9=
EXTT10=
EXTT11=
EXTT12=
EXTT13=
EXTT14=
PLAYORDER=
